<?xml version="1.0" standalone="no"?>
<!DOCTYPE svg PUBLIC "-//W3C//DTD SVG 20010904//EN"
 "http://www.w3.org/TR/2001/REC-SVG-20010904/DTD/svg10.dtd">
<svg version="1.0" xmlns="http://www.w3.org/2000/svg"
 width="502.000000pt" height="363.000000pt" viewBox="0 0 502.000000 363.000000"
 preserveAspectRatio="xMidYMid meet">

<g transform="translate(0.000000,363.000000) scale(0.100000,-0.100000)"
fill="#000000" stroke="none">
<path d="M1988 2359 l-418 -262 0 -64 c0 -34 2 -63 5 -63 3 0 30 16 60 35 l55
35 0 -111 0 -110 -69 36 c-38 20 -95 61 -127 91 l-59 56 -42 -23 c-24 -12 -43
-25 -43 -29 0 -4 30 -36 67 -70 67 -63 139 -114 225 -160 l47 -25 3 -110 3
-110 48 -3 47 -3 0 95 c0 53 2 96 4 96 2 0 23 -7 47 -16 115 -40 334 -78 525
-89 173 -11 447 18 639 66 44 12 84 21 88 22 4 1 9 -36 10 -83 l2 -85 42 -3
42 -3 3 102 c2 78 6 104 18 109 8 5 59 29 112 53 117 55 196 107 267 177 62
61 90 117 91 181 1 158 -107 263 -270 264 -72 0 -77 -2 -136 -42 -39 -26 -75
-63 -98 -97 l-37 -56 -37 24 c-20 13 -179 115 -352 226 -173 112 -322 205
-330 207 -8 2 -203 -114 -432 -258z m779 -89 l340 -214 -4 -146 -3 -145 -43
-13 c-148 -45 -417 -82 -602 -82 -185 0 -347 21 -530 67 -148 38 -135 17 -135
206 l0 162 303 192 c166 106 309 191 318 190 9 -1 169 -99 356 -217z m756 -60
c52 -33 62 -57 54 -126 -6 -57 -40 -94 -153 -170 -78 -52 -201 -114 -225 -114
-17 0 -5 198 16 267 19 64 68 130 115 154 56 30 136 26 193 -11z"/>
<path d="M2310 2225 l0 -45 40 0 40 0 0 45 0 45 -40 0 -40 0 0 -45z"/>
<path d="M2430 2225 l0 -45 40 0 40 0 0 45 0 45 -40 0 -40 0 0 -45z"/>
<path d="M2310 2090 l0 -50 40 0 40 0 0 50 0 50 -40 0 -40 0 0 -50z"/>
<path d="M2430 2089 l0 -50 38 3 c37 3 37 3 40 51 l3 47 -40 0 -41 0 0 -51z"/>
<path d="M3397 2168 c-28 -22 -32 -73 -8 -97 12 -12 27 -21 35 -21 43 0 63 82
28 113 -22 20 -33 21 -55 5z"/>
<path d="M2128 1393 c-22 -5 -24 -23 -3 -23 13 0 15 -20 15 -120 0 -98 -3
-122 -15 -126 -31 -12 -13 -24 35 -24 48 0 66 12 35 24 -12 4 -15 30 -15 141
0 145 1 142 -52 128z"/>
<path d="M2545 1390 c-18 -7 -19 -8 -2 -15 15 -6 17 -22 17 -131 0 -76 -4
-124 -10 -124 -5 0 -10 -4 -10 -10 0 -5 20 -10 45 -10 44 0 60 12 30 24 -11 4
-15 21 -15 66 0 55 2 61 26 72 42 20 59 1 62 -71 2 -48 0 -63 -13 -67 -30 -12
-14 -24 30 -24 42 0 58 11 35 25 -5 3 -10 35 -10 71 0 95 -31 120 -112 89 -16
-6 -18 0 -18 54 0 65 -7 71 -55 51z"/>
<path d="M1116 1359 c-10 -50 -7 -69 9 -69 8 0 15 9 15 19 0 38 11 51 46 51
l34 0 0 -116 c0 -107 -1 -116 -20 -121 -40 -11 -18 -23 40 -23 58 0 80 12 40
23 -19 5 -20 14 -20 121 l0 116 34 0 c35 0 46 -13 46 -51 0 -10 7 -19 15 -19
16 0 19 19 9 69 l-6 31 -118 0 -117 0 -7 -31z"/>
<path d="M1940 1331 c0 -11 -10 -27 -22 -35 -19 -14 -19 -16 -5 -22 14 -5 17
-20 17 -74 0 -80 15 -103 63 -98 31 3 58 31 43 45 -4 4 -12 0 -17 -10 -12 -21
-35 -22 -43 -1 -3 9 -6 42 -6 75 0 59 0 59 30 59 38 0 40 18 3 22 -22 2 -29 9
-31 31 -4 31 -32 38 -32 8z"/>
<path d="M1448 1293 c-20 -5 -23 -18 -8 -28 6 -3 10 -33 10 -66 0 -33 5 -69
10 -80 12 -21 59 -26 92 -8 14 8 23 8 31 0 14 -14 57 -14 57 -1 0 6 -7 10 -15
10 -11 0 -15 19 -17 88 l-3 87 -30 -3 c-38 -4 -44 -11 -22 -23 13 -8 17 -23
17 -64 0 -46 -4 -57 -24 -70 -43 -28 -55 -12 -58 78 -3 80 -7 89 -40 80z"/>
<path d="M1723 1293 c-23 -4 -33 -23 -13 -23 6 0 10 -32 10 -75 0 -43 -4 -75
-10 -75 -5 0 -10 -4 -10 -10 0 -5 25 -10 55 -10 30 0 55 5 55 10 0 6 -9 10
-20 10 -18 0 -20 7 -20 69 0 72 13 94 37 62 11 -15 13 -14 30 2 16 16 16 18 1
34 -15 14 -21 15 -45 4 -19 -9 -29 -9 -31 -2 -2 6 -7 10 -10 10 -4 -1 -17 -4
-29 -6z"/>
<path d="M2329 1285 c-51 -28 -63 -107 -23 -154 21 -26 33 -31 69 -31 41 0 75
18 75 41 0 14 -16 11 -30 -6 -26 -32 -90 -5 -90 38 0 14 11 17 65 17 l65 0 0
29 c0 61 -74 99 -131 66z m81 -36 c18 -32 11 -39 -35 -39 -38 0 -45 3 -45 19
0 24 36 52 56 44 8 -3 19 -14 24 -24z"/>
<path d="M2868 1285 c-51 -29 -59 -114 -15 -162 21 -23 75 -31 112 -17 23 9
45 57 45 98 0 70 -80 116 -142 81z m92 -45 c13 -32 8 -84 -11 -107 -30 -35
-79 2 -79 59 0 55 15 78 49 78 22 0 31 -7 41 -30z"/>
<path d="M3115 1292 c-27 -5 -44 -22 -22 -22 14 0 17 -11 17 -75 0 -43 -4 -75
-10 -75 -5 0 -10 -4 -10 -10 0 -5 20 -10 45 -10 44 0 60 12 30 24 -11 4 -15
21 -15 66 0 54 2 62 24 72 45 20 56 6 56 -72 0 -40 -4 -70 -10 -70 -5 0 -10
-4 -10 -10 0 -5 20 -10 45 -10 49 0 53 4 30 26 -10 10 -15 35 -15 70 0 48 3
56 24 66 45 20 56 6 56 -72 0 -40 -4 -70 -10 -70 -5 0 -10 -4 -10 -10 0 -5 20
-10 45 -10 25 0 45 5 45 10 0 6 -4 10 -9 10 -4 0 -11 32 -14 71 -9 102 -36
128 -101 94 -26 -14 -31 -14 -48 1 -15 15 -24 16 -55 6 -20 -6 -42 -8 -47 -3
-6 4 -20 6 -31 3z"/>
<path d="M3544 1290 c-57 -23 -74 -121 -29 -165 31 -32 103 -35 128 -7 23 25
10 35 -19 15 -30 -20 -72 -10 -83 20 -5 12 -7 25 -4 30 2 4 34 7 70 7 l66 0
-7 33 c-11 59 -67 90 -122 67z m76 -55 c0 -22 -4 -25 -40 -25 -33 0 -40 3 -40
19 0 11 10 27 22 35 28 20 58 4 58 -29z"/>
<path d="M3780 1287 c-39 -20 -34 -65 10 -94 65 -41 73 -49 66 -61 -4 -7 -20
-12 -37 -12 -22 0 -29 5 -29 20 0 22 -34 29 -45 9 -15 -23 27 -49 76 -49 40 0
51 4 64 24 21 32 11 52 -44 83 -55 32 -64 43 -49 61 14 16 52 12 54 -5 1 -7 2
-17 3 -23 2 -16 31 -12 38 6 14 36 -62 65 -107 41z"/>
</g>
</svg>
